<svg width="32" height="32" viewBox="0 0 200 210" fill="none" xmlns="http://www.w3.org/2000/svg">
  <defs>
    <linearGradient id="A" x1="30" y1="20" x2="170" y2="190" gradientUnits="userSpaceOnUse">
      <stop offset="0%"   stop-color="#e2c45a"/>
      <stop offset="45%"  stop-color="#b8922e"/>
      <stop offset="100%" stop-color="#7a5c18"/>
    </linearGradient>
    <linearGradient id="B" x1="52" y1="55" x2="148" y2="155" gradientUnits="userSpaceOnUse">
      <stop offset="0%"   stop-color="#e2c45a" stop-opacity="1"/>
      <stop offset="100%" stop-color="#b8922e" stop-opacity="0.5"/>
    </linearGradient>
    <linearGradient id="R" x1="100" y1="28" x2="100" y2="188" gradientUnits="userSpaceOnUse">
      <stop offset="0%"   stop-color="#e2c45a" stop-opacity="1"/>
      <stop offset="50%"  stop-color="#b8922e" stop-opacity="0.8"/>
      <stop offset="100%" stop-color="#7a5c18" stop-opacity="0.3"/>
    </linearGradient>
  </defs>
  <!-- Ring -->
  <circle cx="100" cy="108" r="80" stroke="url(#R)" stroke-width="4" fill="none"/>
  <!-- Top accent -->
  <path d="M 100 10 L 105 28 L 100 46 L 95 28 Z" fill="url(#A)"/>
  <path d="M 90 28 L 100 32 L 110 28 L 100 24 Z" fill="url(#A)" opacity="0.7"/>
  <!-- Left accent -->
  <path d="M 2 108 L 20 113 L 38 108 L 20 103 Z" fill="url(#A)"/>
  <path d="M 20 96 L 24 108 L 20 120 L 16 108 Z" fill="url(#A)" opacity="0.7"/>
  <!-- Right accent -->
  <path d="M 162 108 L 180 113 L 198 108 L 180 103 Z" fill="url(#A)"/>
  <path d="M 180 96 L 184 108 L 180 120 L 176 108 Z" fill="url(#A)" opacity="0.7"/>
  <!-- Outer V -->
  <path d="M 32 55 L 100 178 L 168 55" stroke="url(#A)" stroke-width="13" stroke-linecap="round" stroke-linejoin="round"/>
  <!-- Inner V -->
  <path d="M 52 55 L 100 152 L 148 55" stroke="url(#B)" stroke-width="4.5" stroke-linecap="round" stroke-linejoin="round"/>
  <!-- Center diamond -->
  <path d="M 100 82 L 110 98 L 100 114 L 90 98 Z" fill="url(#A)" opacity="0.95"/>
  <path d="M 100 87 L 107 98 L 100 109 L 93 98 Z" fill="#7a5c18" opacity="0.5"/>
</svg>
