<svg width="32" height="32" viewBox="0 0 200 200" fill="none" xmlns="http://www.w3.org/2000/svg">
  <defs>
    <linearGradient id="a" x1="20" y1="10" x2="180" y2="190" gradientUnits="userSpaceOnUse">
      <stop offset="0%"   stop-color="#e8d070"/>
      <stop offset="50%"  stop-color="#c9a84c"/>
      <stop offset="100%" stop-color="#8a6520"/>
    </linearGradient>
    <linearGradient id="b" x1="60" y1="20" x2="140" y2="160" gradientUnits="userSpaceOnUse">
      <stop offset="0%"   stop-color="#e8d070" stop-opacity="0.95"/>
      <stop offset="100%" stop-color="#c9a84c" stop-opacity="0.4"/>
    </linearGradient>
    <linearGradient id="c" x1="100" y1="0" x2="100" y2="200" gradientUnits="userSpaceOnUse">
      <stop offset="0%"   stop-color="#e8d070" stop-opacity="0.9"/>
      <stop offset="60%"  stop-color="#c9a84c" stop-opacity="0.6"/>
      <stop offset="100%" stop-color="#8a6520" stop-opacity="0.15"/>
    </linearGradient>
    <linearGradient id="d" x1="0" y1="30" x2="0" y2="170" gradientUnits="userSpaceOnUse">
      <stop offset="0%"   stop-color="#e8d070" stop-opacity="0.15"/>
      <stop offset="35%"  stop-color="#c9a84c" stop-opacity="0.8"/>
      <stop offset="65%"  stop-color="#c9a84c" stop-opacity="0.8"/>
      <stop offset="100%" stop-color="#8a6520" stop-opacity="0.15"/>
    </linearGradient>
  </defs>
  <circle cx="100" cy="95" r="88" stroke="url(#c)" stroke-width="3" fill="none"/>
  <path d="M 28 42 A 72 72 0 0 0 28 158"  stroke="url(#d)" stroke-width="2" stroke-linecap="round" fill="none"/>
  <path d="M 172 42 A 72 72 0 0 1 172 158" stroke="url(#d)" stroke-width="2" stroke-linecap="round" fill="none"/>
  <path d="M 18 18 L 100 168 L 182 18" stroke="url(#a)" stroke-width="14" stroke-linecap="round" stroke-linejoin="round"/>
  <path d="M 48 18 L 100 138 L 152 18" stroke="url(#b)" stroke-width="5"  stroke-linecap="round" stroke-linejoin="round"/>
  <path d="M 18 4  L 22 18 L 18 32 L 14 18 Z" fill="url(#a)"/>
  <path d="M 4  18 L 18 22 L 32 18 L 18 14 Z" fill="url(#a)" opacity="0.6"/>
  <path d="M 182 4  L 186 18 L 182 32 L 178 18 Z" fill="url(#a)"/>
  <path d="M 168 18 L 182 22 L 196 18 L 182 14 Z" fill="url(#a)" opacity="0.6"/>
  <path d="M 100 144 L 114 162 L 100 180 L 86 162 Z" fill="url(#a)" opacity="0.95"/>
  <path d="M 100 150 L 110 162 L 100 174 L 90 162 Z" fill="#8a6520" opacity="0.5"/>
  <line x1="2"   y1="18" x2="36"  y2="18" stroke="url(#a)" stroke-width="4" stroke-linecap="round" opacity="0.5"/>
  <line x1="164" y1="18" x2="198" y2="18" stroke="url(#a)" stroke-width="4" stroke-linecap="round" opacity="0.5"/>
</svg>
